<?xml version="1.0" encoding="UTF-8"?>
<svg xmlns="http://www.w3.org/2000/svg" xmlns:xlink="http://www.w3.org/1999/xlink" viewBox="0 0 400 400" width="400px" height="400px">
<g id="surface30566819">
<path style=" stroke:none;fill-rule:nonzero;fill:rgb(47.450981%,5.490196%,5.490196%);fill-opacity:1;" d="M 340 200 C 340 277.320312 277.320312 340 200 340 C 122.679688 340 60 277.320312 60 200 C 60 122.679688 122.679688 60 200 60 C 277.320312 60 340 122.679688 340 200 Z M 340 200 "/>
<path style=" stroke:none;fill-rule:nonzero;fill:rgb(12.156863%,12.941177%,16.862746%);fill-opacity:1;" d="M 200 344 C 120.597656 344 56 279.402344 56 200 C 56 120.597656 120.597656 56 200 56 C 279.402344 56 344 120.597656 344 200 C 344 279.402344 279.402344 344 200 344 Z M 200 64 C 125.007812 64 64 125.007812 64 200 C 64 274.992188 125.007812 336 200 336 C 274.992188 336 336 274.992188 336 200 C 336 125.007812 274.992188 64 200 64 Z M 200 64 "/>
<path style=" stroke:none;fill-rule:nonzero;fill:rgb(0%,0%,0%);fill-opacity:1;" d="M 262 96.90625 C 261.65625 96.90625 261.304688 96.820312 260.984375 96.632812 C 258.414062 95.117188 255.773438 93.679688 253.117188 92.367188 C 252.125 91.875 251.71875 90.679688 252.207031 89.6875 C 252.695312 88.695312 253.890625 88.296875 254.886719 88.78125 C 257.632812 90.136719 260.367188 91.621094 263.019531 93.1875 C 263.972656 93.753906 264.285156 94.976562 263.722656 95.929688 C 263.347656 96.554688 262.679688 96.90625 262 96.90625 Z M 262 96.90625 "/>
<path style=" stroke:none;fill-rule:nonzero;fill:rgb(0%,0%,0%);fill-opacity:1;" d="M 274 104.996094 C 273.574219 104.996094 273.152344 104.859375 272.789062 104.585938 C 271.496094 103.597656 270.183594 102.636719 268.855469 101.707031 C 267.953125 101.070312 267.730469 99.824219 268.363281 98.921875 C 269 98.015625 270.246094 97.796875 271.152344 98.429688 C 272.523438 99.390625 273.882812 100.382812 275.21875 101.40625 C 276.097656 102.074219 276.265625 103.332031 275.59375 104.210938 C 275.195312 104.726562 274.601562 104.996094 274 104.996094 Z M 274 104.996094 "/>
<path style=" stroke:none;fill-rule:nonzero;fill:rgb(12.156863%,12.941177%,16.862746%);fill-opacity:1;" d="M 200 324 C 131.628906 324 76 268.371094 76 200 C 76 131.628906 131.628906 76 200 76 C 214.667969 76 229.027344 78.539062 242.6875 83.546875 C 243.722656 83.929688 244.261719 85.074219 243.875 86.113281 C 243.496094 87.152344 242.347656 87.695312 241.3125 87.300781 C 228.097656 82.457031 214.195312 80 200 80 C 133.832031 80 80 133.832031 80 200 C 80 266.167969 133.832031 320 200 320 C 266.167969 320 320 266.167969 320 200 C 320 166.242188 305.660156 133.855469 280.65625 111.148438 C 279.835938 110.402344 279.777344 109.140625 280.519531 108.324219 C 281.265625 107.503906 282.53125 107.449219 283.34375 108.1875 C 309.179688 131.652344 324 165.117188 324 200 C 324 268.371094 268.371094 324 200 324 Z M 200 324 "/>
<path style=" stroke:none;fill-rule:evenodd;fill:rgb(100%,100%,100%);fill-opacity:1;" d="M 233.253906 215.511719 C 228.03125 221.230469 220.707031 224.128906 217.277344 224.128906 C 213.308594 224.128906 211.140625 221.695312 210.695312 218.042969 C 210.546875 216.644531 210.597656 215.226562 210.84375 213.839844 C 212.15625 205.652344 215.167969 200.5625 214.980469 199.015625 C 214.925781 198.570312 214.675781 198.351562 214.347656 198.351562 C 211.8125 198.351562 202.90625 207.535156 201.554688 213.625 L 200.503906 218.492188 C 199.816406 221.925781 196.453125 224.132812 194.140625 224.132812 C 193.035156 224.132812 192.195312 223.578125 192.046875 222.363281 C 192.003906 221.808594 192.046875 221.246094 192.179688 220.703125 L 192.675781 218.140625 C 187.875 221.726562 182.699219 224.152344 180.277344 224.152344 C 176.96875 224.152344 175.105469 222.382812 174.449219 219.722656 C 172.265625 222.605469 169.367188 224.152344 166.285156 224.152344 C 162.347656 224.152344 158.554688 221.546875 156.730469 217.691406 C 154.136719 220.609375 151.058594 223.457031 147.382812 225.8125 C 141.960938 229.234375 135.910156 232 128.753906 232 C 122.140625 232 116.527344 228.460938 113.425781 225.585938 C 108.820312 221.269531 106.382812 214.847656 105.667969 208.984375 C 103.40625 190.503906 114.65625 166.273438 132.089844 155.652344 C 136.089844 153.214844 140.566406 152 144.640625 152 C 153.015625 152 159.265625 157.992188 160.140625 165.152344 C 160.929688 171.605469 158.347656 177.175781 151.195312 180.785156 C 147.542969 182.632812 145.734375 182.542969 145.164062 181.664062 C 144.785156 181.074219 145 180.078125 145.734375 179.46875 C 152.460938 173.847656 152.589844 169.238281 151.796875 162.734375 C 151.285156 158.554688 148.53125 155.875 145.449219 155.875 C 132.226562 155.875 113.269531 185.53125 115.902344 207.109375 C 116.933594 215.519531 122.089844 225.257812 132.664062 225.257812 C 136.1875 225.257812 139.925781 224.261719 143.246094 222.601562 C 149.046875 219.636719 152.328125 217.292969 155.625 213.453125 C 154.816406 203.476562 163.375 190.953125 176.113281 190.953125 C 181.621094 190.953125 186.1875 193.164062 186.726562 197.59375 C 187.402344 203.125 182.691406 204.230469 180.929688 204.230469 C 179.382812 204.230469 176.90625 203.789062 176.730469 202.351562 C 176.542969 200.800781 180.066406 201.6875 179.632812 198.148438 C 179.359375 195.9375 177.0625 195.164062 174.859375 195.164062 C 166.929688 195.164062 162.550781 206.226562 163.386719 213.09375 C 163.769531 216.191406 165.359375 219.289062 168.222656 219.289062 C 170.535156 219.289062 173.875 215.96875 175.152344 211.101562 C 175.960938 207.78125 179.105469 205.566406 181.421875 205.566406 C 182.632812 205.566406 183.472656 206.121094 183.621094 207.335938 C 183.671875 207.78125 183.632812 208.335938 183.492188 208.996094 C 183.226562 210.433594 182.125 215.21875 182.175781 216.210938 C 182.214844 217.074219 182.710938 218.265625 184.210938 218.265625 C 185.402344 218.265625 189.773438 215.902344 193.820312 212.273438 C 195.09375 205.699219 196.660156 197.574219 196.785156 196.9375 C 197.28125 194.273438 198.230469 191.53125 203.632812 191.53125 C 204.734375 191.53125 205.574219 192.085938 205.734375 193.410156 C 205.789062 193.851562 205.746094 194.410156 205.609375 195.070312 L 204.101562 201.902344 C 208.835938 195.597656 216.199219 190.953125 220.609375 190.953125 C 222.484375 190.953125 223.929688 191.945312 224.171875 193.9375 C 224.308594 195.042969 223.984375 196.925781 223.253906 199.027344 C 221.683594 203.339844 219.921875 209.824219 218.753906 215.402344 C 218.503906 216.589844 218.914062 218.378906 221.085938 218.378906 C 222.8125 218.378906 228.375 216.261719 232.863281 210.332031 C 232.835938 209.492188 232.820312 208.640625 232.820312 207.785156 C 232.820312 203.136719 233.148438 199.375 234.027344 196.613281 C 234.90625 193.730469 238.546875 190.972656 240.96875 190.972656 C 242.183594 190.972656 243.0625 191.636719 243.0625 192.960938 C 243.0625 193.402344 242.953125 193.960938 242.730469 194.507812 C 241.078125 199.375 240.199219 203.914062 240.199219 208.453125 C 240.199219 210.996094 240.753906 215.09375 241.304688 217.191406 C 241.410156 217.636719 241.519531 218.074219 241.960938 218.074219 C 242.730469 218.074219 247.910156 212.988281 251.65625 206.789062 C 248.347656 204.683594 246.476562 200.8125 246.476562 196.050781 C 246.476562 188.089844 251.214844 183.992188 255.839844 183.992188 C 259.476562 183.992188 262.78125 186.648438 262.78125 191.957031 C 262.78125 195.28125 261.457031 199.039062 259.589844 202.691406 C 259.589844 202.691406 260.359375 202.804688 260.6875 202.804688 C 263.550781 202.804688 265.757812 201.472656 266.972656 200.035156 C 267.523438 199.410156 268.03125 198.921875 268.523438 198.636719 C 272.214844 194.179688 277.621094 190.960938 283.964844 190.960938 C 289.363281 190.960938 294.023438 193.0625 294.5625 197.488281 C 295.257812 203.128906 290.4375 204.234375 288.78125 204.234375 C 287.128906 204.234375 284.648438 203.792969 284.476562 202.355469 C 284.300781 200.921875 287.921875 201.691406 287.5 198.265625 C 287.230469 196.046875 284.921875 195.164062 282.714844 195.164062 C 275.332031 195.164062 270.257812 205.011719 271.230469 212.980469 C 271.625 216.1875 273.105469 219.289062 275.96875 219.289062 C 278.28125 219.289062 281.734375 215.964844 283.011719 211.097656 C 283.832031 207.886719 286.960938 205.5625 289.277344 205.5625 C 290.375 205.5625 291.328125 206.117188 291.488281 207.445312 C 291.566406 208.109375 291.304688 209.546875 290.066406 214.742188 C 289.5625 216.957031 289.464844 218.839844 289.652344 220.386719 C 290.046875 223.597656 291.515625 225.695312 292.875 226.914062 C 293.371094 227.355469 293.660156 227.90625 293.699219 228.242188 C 293.804688 229.128906 293.132812 229.902344 292.027344 229.902344 C 291.695312 229.902344 291.257812 229.902344 290.894531 229.683594 C 285.21875 227.359375 282.867188 223.488281 282.199219 219.835938 C 280.007812 222.601562 277.109375 224.148438 274.136719 224.148438 C 269.0625 224.148438 264.117188 219.71875 263.414062 213.96875 C 263.128906 211.605469 263.410156 209.0625 264.1875 206.566406 C 262.132812 207.839844 259.914062 208.542969 257.933594 208.542969 C 257.269531 208.542969 256.722656 208.542969 256.058594 208.4375 C 251.105469 215.625 245.925781 220.605469 241.957031 222.820312 C 240.304688 223.703125 238.765625 224.148438 237.660156 224.148438 C 236.777344 224.148438 235.785156 223.929688 235.347656 223.152344 C 234.332031 221.441406 233.648438 218.710938 233.253906 215.511719 Z M 251.207031 191.945312 C 251.207031 195.042969 252.746094 198.253906 254.730469 200.355469 C 255.507812 198.253906 255.949219 196.152344 255.949219 194.046875 C 255.949219 190.0625 254.402344 188.292969 253.191406 188.292969 C 251.757812 188.292969 251.207031 190.285156 251.207031 191.945312 Z M 251.207031 191.945312 "/>
</g>
</svg>
