<?xml version="1.0" encoding="UTF-8"?>
<svg xmlns="http://www.w3.org/2000/svg" xmlns:xlink="http://www.w3.org/1999/xlink" viewBox="0 0 500 500" width="500px" height="500px">
<g id="surface30539274">
<path style=" stroke:none;fill-rule:nonzero;fill:rgb(47.450981%,5.490196%,5.490196%);fill-opacity:1;" d="M 82.1875 20 C 71.054688 20.898438 60.273438 27.34375 54.375 37.8125 C 51.40625 43.046875 49.960938 48.984375 50 55 L 50 342.5 L 65.625 353.4375 C 69.882812 355.78125 75.117188 355.78125 79.375 353.4375 L 110 335.9375 L 110 185 C 110.15625 165.78125 125.78125 150.15625 145 150.3125 C 150.898438 150.351562 156.757812 152.109375 161.875 155 L 250 204.0625 L 250 185.3125 C 250 175.273438 258.046875 167.1875 268.125 167.1875 C 271.25 167.1875 274.453125 167.851562 277.1875 169.375 L 341.875 205.625 L 383.4375 182.5 L 101.875 24.375 C 95.585938 20.820312 88.867188 19.453125 82.1875 20 Z M 143.75 170 C 139.023438 170.351562 134.375 173.046875 131.875 177.5 C 130.585938 179.765625 129.960938 182.382812 130 185 L 130 325 L 250 257.5 L 250 226.875 L 152.1875 171.875 C 149.53125 170.351562 146.601562 169.765625 143.75 170 Z M 270 188.4375 L 270 311.5625 L 380 250 Z M 403.75 193.75 L 362.1875 217.1875 L 394.6875 235.3125 C 402.773438 239.84375 405.46875 250.039062 400.9375 258.125 C 399.414062 260.820312 397.382812 263.164062 394.6875 264.6875 L 376.25 274.6875 L 417.8125 298.125 L 456.25 276.5625 C 470.976562 268.242188 476.132812 249.414062 467.8125 234.6875 C 465.078125 229.84375 461.09375 225.859375 456.25 223.125 L 456.25 223.4375 Z M 250 280 L 130 347.5 L 130 460 L 397.5 310 L 355.9375 286.25 L 277.1875 330.625 C 268.4375 335.585938 257.460938 332.5 252.5 323.75 C 250.9375 320.976562 249.960938 317.851562 250 314.6875 Z M 110 358.75 L 89.0625 370 C 78.476562 376.015625 65.585938 376.015625 55 370 L 50 366.875 L 50 445.3125 C 50.078125 464.453125 65.507812 479.765625 84.6875 479.6875 C 90.664062 479.648438 96.679688 478.28125 101.875 475.3125 L 110 470.625 Z M 110 358.75 "/>
</g>
</svg>
