<?xml version="1.0" encoding="UTF-8"?>
<svg xmlns="http://www.w3.org/2000/svg" xmlns:xlink="http://www.w3.org/1999/xlink" viewBox="0 0 512 512" width="512px" height="512px">
<g id="surface46819010">
<path style=" stroke:none;fill-rule:nonzero;fill:rgb(47.450981%,5.490196%,5.490196%);fill-opacity:1;" d="M 352.8125 159.1875 C 344.414062 158.789062 337.59375 160 337.59375 160 L 401.59375 256 L 337.59375 350.40625 C 337.59375 350.40625 366.386719 355.207031 379.1875 342.40625 C 387.1875 334.40625 391.988281 326.398438 419.1875 288 C 423.988281 280 428.8125 288 428.8125 288 C 452.8125 320 459.207031 332.804688 470.40625 342.40625 C 484.804688 353.605469 512 350.40625 512 350.40625 L 448 256 L 510.40625 160 C 510.40625 160 483.207031 155.199219 470.40625 168 C 460.804688 177.601562 451.210938 190.398438 428.8125 224 C 428.8125 224 423.988281 232 419.1875 224 C 396.789062 192 387.195312 177.601562 377.59375 168 C 371.195312 161.601562 361.210938 159.585938 352.8125 159.1875 Z M 6.71875 159.84375 C 4.457031 159.738281 2.199219 159.800781 0 160 L 51.1875 352 C 51.1875 352 67.1875 352.011719 75.1875 348.8125 C 86.386719 344.011719 91.195312 339.195312 97.59375 313.59375 C 103.992188 291.195312 119.992188 222.394531 121.59375 217.59375 C 124.792969 206.394531 129.613281 206.394531 132.8125 217.59375 C 134.414062 222.394531 150.414062 289.59375 156.8125 313.59375 C 163.210938 339.195312 167.988281 344.011719 179.1875 348.8125 C 188.789062 353.613281 204.8125 352 204.8125 352 L 256 160 C 238.398438 158.398438 217.601562 167.988281 216 187.1875 L 188.8125 289.59375 L 166.40625 206.40625 C 161.605469 182.40625 150.394531 169.59375 129.59375 169.59375 C 108.792969 169.59375 99.210938 180.804688 92.8125 206.40625 L 70.40625 289.59375 L 43.1875 187.1875 C 38.988281 168.988281 22.554688 160.585938 6.71875 159.84375 Z M 313.59375 160 C 313.59375 160 300.8125 159.988281 292.8125 163.1875 C 283.210938 167.988281 280 177.59375 280 201.59375 C 280 201.59375 284.8125 196.792969 292.8125 193.59375 C 315.210938 185.59375 313.59375 169.601562 313.59375 160 Z M 312 192 L 312 193.21875 C 312.390625 192.523438 312.480469 192 312 192 Z M 312 193.21875 C 311.097656 194.832031 307.996094 197.765625 302.40625 200 C 297.605469 203.199219 292.800781 204.804688 288 206.40625 C 276.800781 211.207031 278.40625 217.59375 278.40625 233.59375 L 278.40625 352 C 278.40625 352 291.1875 353.613281 299.1875 348.8125 C 310.386719 344.011719 312 337.59375 312 313.59375 Z M 312 193.21875 "/>
</g>
</svg>
